<svg width="86" height="76" viewBox="0 0 86 76" fill="none" xmlns="http://www.w3.org/2000/svg">
<path fill-rule="evenodd" clip-rule="evenodd" d="M36.3569 19.1534H13.562L24.3607 39.5419L24.9598 40.6728L36.3569 19.1534Z" fill="white"/>
<path fill-rule="evenodd" clip-rule="evenodd" d="M59.8596 12.799L63.81 5.29962H50.2007L46.2527 12.799H59.8596Z" fill="white"/>
<path fill-rule="evenodd" clip-rule="evenodd" d="M37.8893 54.7748L56.5331 19.1534H42.9344L28.3538 47.0817L32.4286 54.7748H37.8893Z" fill="white"/>
<path d="M10.632 63.2263L6.544 73.3063H5.067L0.979004 63.2263H2.288C2.43267 63.2263 2.54933 63.2636 2.638 63.3383C2.72667 63.4083 2.79433 63.497 2.841 63.6043L5.438 70.1773C5.578 70.546 5.70633 70.9706 5.823 71.4513C5.87433 71.2133 5.928 70.987 5.984 70.7723C6.04467 70.5576 6.11 70.3593 6.18 70.1773L8.77 63.6043C8.80733 63.511 8.87267 63.4246 8.966 63.3453C9.05933 63.266 9.176 63.2263 9.316 63.2263H10.632ZM18.1013 71.9833L18.0943 73.3063H11.8083V63.2263H18.0943V64.5493H13.4533V67.5873H17.1633V68.8683H13.4533V71.9833H18.1013ZM22.8007 68.0563C23.1741 68.0563 23.5007 68.012 23.7807 67.9233C24.0607 67.83 24.2941 67.7016 24.4807 67.5383C24.6674 67.375 24.8074 67.1813 24.9007 66.9573C24.9941 66.7286 25.0407 66.4766 25.0407 66.2013C25.0407 65.6506 24.8587 65.2306 24.4947 64.9413C24.1307 64.652 23.5801 64.5073 22.8427 64.5073H21.5127V68.0563H22.8007ZM27.5467 73.3063H26.0837C25.7944 73.3063 25.5844 73.1943 25.4537 72.9703L23.1017 69.5753C23.0224 69.4586 22.9361 69.3746 22.8427 69.3233C22.7494 69.272 22.6094 69.2463 22.4227 69.2463H21.5127V73.3063H19.8747V63.2263H22.8427C23.5054 63.2263 24.0747 63.294 24.5507 63.4293C25.0314 63.5646 25.4257 63.7583 25.7337 64.0103C26.0417 64.2576 26.2681 64.5563 26.4127 64.9063C26.5621 65.2563 26.6367 65.646 26.6367 66.0753C26.6367 66.4253 26.5831 66.752 26.4757 67.0553C26.3731 67.3586 26.2214 67.634 26.0207 67.8813C25.8247 68.1286 25.5821 68.3433 25.2927 68.5253C25.0034 68.7073 24.6744 68.8496 24.3057 68.9523C24.5064 69.0736 24.6791 69.244 24.8237 69.4633L27.5467 73.3063ZM30.4065 73.3063H28.7615V63.2263H30.4065V73.3063ZM34.4397 64.5493V67.7763H38.3807V69.0993H34.4397V73.3063H32.7947V63.2263H39.0807V64.5493H34.4397ZM42.3557 73.3063H40.7107V63.2263H42.3557V73.3063ZM51.0369 71.9833L51.0299 73.3063H44.7439V63.2263H51.0299V64.5493H46.3889V67.5873H50.0989V68.8683H46.3889V71.9833H51.0369ZM61.6583 68.2663C61.6583 69.013 61.5369 69.6966 61.2943 70.3173C61.0516 70.9333 60.7086 71.463 60.2653 71.9063C59.8266 72.3496 59.2969 72.695 58.6763 72.9423C58.0603 73.185 57.3743 73.3063 56.6183 73.3063H52.8103V63.2263H56.6183C57.3743 63.2263 58.0603 63.35 58.6763 63.5973C59.2969 63.84 59.8266 64.183 60.2653 64.6263C60.7086 65.0696 61.0516 65.6016 61.2943 66.2223C61.5369 66.8383 61.6583 67.5196 61.6583 68.2663ZM59.9853 68.2663C59.9853 67.6876 59.9059 67.1673 59.7473 66.7053C59.5933 66.2433 59.3693 65.8536 59.0753 65.5363C58.7859 65.219 58.4336 64.9763 58.0183 64.8083C57.6029 64.6356 57.1363 64.5493 56.6183 64.5493H54.4553V71.9833H56.6183C57.1363 71.9833 57.6029 71.8993 58.0183 71.7313C58.4336 71.5633 58.7859 71.3206 59.0753 71.0033C59.3693 70.6813 59.5933 70.2916 59.7473 69.8343C59.9059 69.3723 59.9853 68.8496 59.9853 68.2663ZM64.4477 73.3063H63.7267V63.4013H64.4477V73.3063ZM75.0211 63.4013V73.3063H74.6851C74.6244 73.3063 74.5731 73.297 74.5311 73.2783C74.4937 73.255 74.4564 73.2176 74.4191 73.1663L67.9861 64.5703C68.0001 64.7103 68.0071 64.8433 68.0071 64.9693V73.3063H67.3771V63.4013H67.7341C67.7994 63.4013 67.8484 63.4106 67.8811 63.4293C67.9184 63.4433 67.9581 63.4783 68.0001 63.5343L74.4191 72.1093C74.4051 71.9693 74.3981 71.8363 74.3981 71.7103V63.4013H75.0211ZM78.6664 67.9723H79.2544C79.3431 67.9723 79.4201 67.97 79.4854 67.9653C79.5508 67.956 79.6091 67.942 79.6604 67.9233C79.7164 67.9046 79.7654 67.879 79.8074 67.8463C79.8541 67.809 79.9031 67.7646 79.9544 67.7133L83.9514 63.6043C84.0214 63.525 84.0891 63.4713 84.1544 63.4433C84.2244 63.4153 84.3061 63.4013 84.3994 63.4013H84.9734L80.6474 67.8463C80.5588 67.9396 80.4794 68.012 80.4094 68.0633C80.3441 68.1146 80.2694 68.1566 80.1854 68.1893C80.2834 68.2173 80.3721 68.2616 80.4514 68.3223C80.5308 68.3783 80.6101 68.453 80.6894 68.5463L85.2464 73.3063H84.6654C84.5441 73.3063 84.4554 73.2923 84.3994 73.2643C84.3481 73.2316 84.2968 73.1826 84.2454 73.1173L80.0594 68.8333C80.0081 68.782 79.9591 68.7376 79.9124 68.7003C79.8704 68.663 79.8214 68.6326 79.7654 68.6093C79.7141 68.5813 79.6511 68.5626 79.5764 68.5533C79.5064 68.5393 79.4154 68.5323 79.3034 68.5323H78.6664V73.3063H77.9454V63.4013H78.6664V67.9723Z" fill="white"/>
</svg>
