<svg width="577" height="120" viewBox="0 0 577 120" fill="none" xmlns="http://www.w3.org/2000/svg">
<path fill-rule="evenodd" clip-rule="evenodd" d="M54.4378 41.9612H0L25.7889 86.628L27.2197 89.1056L54.4378 41.9612Z" fill="white"/>
<path fill-rule="evenodd" clip-rule="evenodd" d="M110.566 28.0399L120 11.6104H87.4989L78.0703 28.0399H110.566Z" fill="white"/>
<path fill-rule="evenodd" clip-rule="evenodd" d="M58.0974 120L102.622 41.9612H70.1459L35.325 103.146L45.0563 120H58.0974Z" fill="white"/>
<path d="M192.536 55.16L171.512 107H163.916L142.892 55.16H149.624C150.368 55.16 150.968 55.352 151.424 55.736C151.88 56.096 152.228 56.552 152.468 57.104L165.824 90.908C166.544 92.804 167.204 94.988 167.804 97.46C168.068 96.236 168.344 95.072 168.632 93.968C168.944 92.864 169.28 91.844 169.64 90.908L182.96 57.104C183.152 56.624 183.488 56.18 183.968 55.772C184.448 55.364 185.048 55.16 185.768 55.16H192.536ZM230.95 100.196L230.914 107H198.586V55.16H230.914V61.964H207.046V77.588H226.126V84.176H207.046V100.196H230.95ZM255.118 80C257.038 80 258.718 79.772 260.158 79.316C261.598 78.836 262.798 78.176 263.758 77.336C264.718 76.496 265.438 75.5 265.918 74.348C266.398 73.172 266.638 71.876 266.638 70.46C266.638 67.628 265.702 65.468 263.83 63.98C261.958 62.492 259.126 61.748 255.334 61.748H248.494V80H255.118ZM279.526 107H272.002C270.514 107 269.434 106.424 268.762 105.272L256.666 87.812C256.258 87.212 255.814 86.78 255.334 86.516C254.854 86.252 254.134 86.12 253.174 86.12H248.494V107H240.07V55.16H255.334C258.742 55.16 261.67 55.508 264.118 56.204C266.59 56.9 268.618 57.896 270.202 59.192C271.786 60.464 272.95 62 273.694 63.8C274.462 65.6 274.846 67.604 274.846 69.812C274.846 71.612 274.57 73.292 274.018 74.852C273.49 76.412 272.71 77.828 271.678 79.1C270.67 80.372 269.422 81.476 267.934 82.412C266.446 83.348 264.754 84.08 262.858 84.608C263.89 85.232 264.778 86.108 265.522 87.236L279.526 107ZM294.233 107H285.773V55.16H294.233V107ZM314.975 61.964V78.56H335.243V85.364H314.975V107H306.515V55.16H338.843V61.964H314.975ZM355.686 107H347.226V55.16H355.686V107ZM400.333 100.196L400.297 107H367.969V55.16H400.297V61.964H376.429V77.588H395.509V84.176H376.429V100.196H400.333ZM454.957 81.08C454.957 84.92 454.333 88.436 453.085 91.628C451.837 94.796 450.073 97.52 447.793 99.8C445.537 102.08 442.813 103.856 439.621 105.128C436.453 106.376 432.925 107 429.037 107H409.453V55.16H429.037C432.925 55.16 436.453 55.796 439.621 57.068C442.813 58.316 445.537 60.08 447.793 62.36C450.073 64.64 451.837 67.376 453.085 70.568C454.333 73.736 454.957 77.24 454.957 81.08ZM446.353 81.08C446.353 78.104 445.945 75.428 445.129 73.052C444.337 70.676 443.185 68.672 441.673 67.04C440.185 65.408 438.373 64.16 436.237 63.296C434.101 62.408 431.701 61.964 429.037 61.964H417.913V100.196H429.037C431.701 100.196 434.101 99.764 436.237 98.9C438.373 98.036 440.185 96.788 441.673 95.156C443.185 93.5 444.337 91.496 445.129 89.144C445.945 86.768 446.353 84.08 446.353 81.08ZM469.302 107H465.594V56.06H469.302V107ZM523.68 56.06V107H521.952C521.64 107 521.376 106.952 521.16 106.856C520.968 106.736 520.776 106.544 520.584 106.28L487.5 62.072C487.572 62.792 487.608 63.476 487.608 64.124V107H484.368V56.06H486.204C486.54 56.06 486.792 56.108 486.96 56.204C487.152 56.276 487.356 56.456 487.572 56.744L520.584 100.844C520.512 100.124 520.476 99.44 520.476 98.792V56.06H523.68ZM542.427 79.568H545.451C545.907 79.568 546.303 79.556 546.639 79.532C546.975 79.484 547.275 79.412 547.539 79.316C547.827 79.22 548.079 79.088 548.295 78.92C548.535 78.728 548.787 78.5 549.051 78.236L569.607 57.104C569.967 56.696 570.315 56.42 570.651 56.276C571.011 56.132 571.431 56.06 571.911 56.06H574.863L552.615 78.92C552.159 79.4 551.751 79.772 551.391 80.036C551.055 80.3 550.671 80.516 550.239 80.684C550.743 80.828 551.199 81.056 551.607 81.368C552.015 81.656 552.423 82.04 552.831 82.52L576.267 107H573.279C572.655 107 572.199 106.928 571.911 106.784C571.647 106.616 571.383 106.364 571.119 106.028L549.591 83.996C549.327 83.732 549.075 83.504 548.835 83.312C548.619 83.12 548.367 82.964 548.079 82.844C547.815 82.7 547.491 82.604 547.107 82.556C546.747 82.484 546.279 82.448 545.703 82.448H542.427V107H538.719V56.06H542.427V79.568Z" fill="white"/>
</svg>
